<svg xmlns="http://www.w3.org/2000/svg" viewBox="0 0 1280 720" role="img" aria-labelledby="title desc">
  <title id="title">Business management dashboard</title>
  <desc id="desc">A modern business management dashboard with charts and task cards.</desc>
  <defs>
    <linearGradient id="bg" x1="0" x2="1" y1="0" y2="1">
      <stop offset="0" stop-color="#F8FAFC"/>
      <stop offset="1" stop-color="#FFF7ED"/>
    </linearGradient>
    <linearGradient id="chart" x1="0" x2="1">
      <stop offset="0" stop-color="#14B8A6"/>
      <stop offset="1" stop-color="#FF6B35"/>
    </linearGradient>
  </defs>
  <rect width="1280" height="720" fill="url(#bg)"/>
  <rect x="86" y="72" width="1108" height="576" rx="34" fill="#fff" stroke="#E5E7EB" stroke-width="3"/>
  <rect x="86" y="72" width="228" height="576" rx="34" fill="#111827"/>
  <rect x="142" y="138" width="116" height="22" rx="11" fill="#fff"/>
  <rect x="132" y="220" width="126" height="18" rx="9" fill="#FF6B35"/>
  <rect x="132" y="274" width="142" height="18" rx="9" fill="#D1D5DB" opacity=".72"/>
  <rect x="132" y="328" width="116" height="18" rx="9" fill="#D1D5DB" opacity=".72"/>
  <rect x="132" y="382" width="148" height="18" rx="9" fill="#D1D5DB" opacity=".72"/>
  <rect x="364" y="122" width="328" height="122" rx="24" fill="#FFF0EA"/>
  <rect x="728" y="122" width="190" height="122" rx="24" fill="#ECFDF5"/>
  <rect x="954" y="122" width="190" height="122" rx="24" fill="#EFF6FF"/>
  <rect x="398" y="160" width="134" height="18" rx="9" fill="#E85624" opacity=".82"/>
  <rect x="398" y="194" width="214" height="26" rx="13" fill="#1F2937"/>
  <rect x="762" y="160" width="92" height="18" rx="9" fill="#14B8A6" opacity=".82"/>
  <rect x="762" y="194" width="74" height="26" rx="13" fill="#1F2937"/>
  <rect x="988" y="160" width="98" height="18" rx="9" fill="#3B82F6" opacity=".72"/>
  <rect x="988" y="194" width="86" height="26" rx="13" fill="#1F2937"/>
  <rect x="364" y="286" width="520" height="296" rx="26" fill="#F9FAFB" stroke="#E5E7EB" stroke-width="3"/>
  <polyline points="410,520 490,455 570,486 650,380 730,418 830,340" fill="none" stroke="url(#chart)" stroke-width="16" stroke-linecap="round" stroke-linejoin="round"/>
  <rect x="410" y="330" width="176" height="18" rx="9" fill="#1F2937" opacity=".72"/>
  <rect x="928" y="286" width="216" height="296" rx="26" fill="#F9FAFB" stroke="#E5E7EB" stroke-width="3"/>
  <rect x="964" y="330" width="130" height="18" rx="9" fill="#1F2937" opacity=".72"/>
  <rect x="964" y="380" width="142" height="44" rx="14" fill="#fff" stroke="#E5E7EB" stroke-width="2"/>
  <rect x="964" y="452" width="142" height="44" rx="14" fill="#fff" stroke="#E5E7EB" stroke-width="2"/>
  <rect x="964" y="524" width="142" height="28" rx="14" fill="#FF6B35"/>
  <circle cx="990" cy="402" r="10" fill="#14B8A6"/>
  <circle cx="990" cy="474" r="10" fill="#FF6B35"/>
</svg>
