<svg xmlns="http://www.w3.org/2000/svg" viewBox="0 0 1280 720" role="img" aria-labelledby="title desc">
  <title id="title">Spa chatbot interface</title>
  <desc id="desc">A spa website with a chatbot conversation panel.</desc>
  <defs>
    <linearGradient id="bg" x1="0" x2="1" y1="0" y2="1">
      <stop offset="0" stop-color="#FFF0EA"/>
      <stop offset=".55" stop-color="#FFFFFF"/>
      <stop offset="1" stop-color="#CCFBF1"/>
    </linearGradient>
  </defs>
  <rect width="1280" height="720" fill="url(#bg)"/>
  <rect x="92" y="76" width="1096" height="568" rx="36" fill="#fff" stroke="#E5E7EB" stroke-width="3"/>
  <rect x="132" y="116" width="520" height="488" rx="28" fill="#FDF2F8"/>
  <circle cx="392" cy="290" r="132" fill="#FED7AA"/>
  <path d="M273 340c68 86 178 87 240 0-38 26-85 39-122 39-42 0-83-13-118-39z" fill="#FFEDD5"/>
  <circle cx="346" cy="270" r="16" fill="#1F2937" opacity=".65"/>
  <circle cx="436" cy="270" r="16" fill="#1F2937" opacity=".65"/>
  <path d="M310 202c62-74 155-68 211 2-63-24-139-22-211-2z" fill="#14B8A6" opacity=".72"/>
  <rect x="188" y="492" width="176" height="28" rx="14" fill="#FF6B35"/>
  <rect x="188" y="535" width="328" height="16" rx="8" fill="#6B7280" opacity=".36"/>
  <rect x="704" y="116" width="444" height="488" rx="28" fill="#F9FAFB" stroke="#E5E7EB" stroke-width="3"/>
  <rect x="736" y="148" width="380" height="64" rx="22" fill="#1F2937"/>
  <circle cx="774" cy="180" r="17" fill="#14B8A6"/>
  <rect x="810" y="169" width="142" height="18" rx="9" fill="#fff" opacity=".9"/>
  <rect x="762" y="250" width="250" height="58" rx="22" fill="#E5E7EB"/>
  <rect x="846" y="334" width="240" height="58" rx="22" fill="#FFF0EA"/>
  <rect x="762" y="418" width="300" height="58" rx="22" fill="#E5E7EB"/>
  <rect x="846" y="502" width="208" height="58" rx="22" fill="#FF6B35"/>
  <circle cx="1030" cy="258" r="20" fill="#14B8A6"/>
  <circle cx="790" cy="342" r="20" fill="#FF6B35"/>
  <circle cx="1030" cy="426" r="20" fill="#14B8A6"/>
  <rect x="786" y="268" width="168" height="14" rx="7" fill="#6B7280" opacity=".52"/>
  <rect x="874" y="352" width="150" height="14" rx="7" fill="#E85624" opacity=".8"/>
  <rect x="786" y="436" width="220" height="14" rx="7" fill="#6B7280" opacity=".52"/>
  <rect x="882" y="520" width="112" height="14" rx="7" fill="#fff" opacity=".95"/>
</svg>
