<svg xmlns="http://www.w3.org/2000/svg" viewBox="0 0 1280 720" role="img" aria-labelledby="title desc">
  <title id="title">Hotel booking interface</title>
  <desc id="desc">A clean hotel room booking dashboard illustration.</desc>
  <defs>
    <linearGradient id="bg" x1="0" x2="1" y1="0" y2="1">
      <stop offset="0" stop-color="#FFF7ED"/>
      <stop offset="1" stop-color="#ECFEFF"/>
    </linearGradient>
    <linearGradient id="accent" x1="0" x2="1">
      <stop offset="0" stop-color="#FF6B35"/>
      <stop offset="1" stop-color="#E85624"/>
    </linearGradient>
  </defs>
  <rect width="1280" height="720" fill="url(#bg)"/>
  <rect x="90" y="82" width="1100" height="556" rx="34" fill="#fff" stroke="#E5E7EB" stroke-width="3"/>
  <rect x="130" y="122" width="1020" height="80" rx="22" fill="#1F2937"/>
  <circle cx="176" cy="162" r="12" fill="#FF6B35"/>
  <circle cx="214" cy="162" r="12" fill="#14B8A6"/>
  <rect x="270" y="146" width="250" height="22" rx="11" fill="#F9FAFB" opacity=".92"/>
  <rect x="880" y="140" width="180" height="34" rx="17" fill="url(#accent)"/>
  <rect x="130" y="236" width="560" height="338" rx="24" fill="#F3F4F6"/>
  <rect x="165" y="276" width="490" height="174" rx="18" fill="#D1FAE5"/>
  <path d="M165 405h490v45H165z" fill="#A7F3D0"/>
  <rect x="210" y="330" width="185" height="72" rx="18" fill="#fff"/>
  <rect x="425" y="330" width="185" height="72" rx="18" fill="#fff"/>
  <rect x="218" y="294" width="120" height="18" rx="9" fill="#1F2937" opacity=".7"/>
  <rect x="735" y="236" width="415" height="78" rx="20" fill="#FFF0EA"/>
  <rect x="765" y="263" width="210" height="20" rx="10" fill="#FF6B35"/>
  <rect x="735" y="342" width="192" height="232" rx="22" fill="#fff" stroke="#E5E7EB" stroke-width="3"/>
  <rect x="958" y="342" width="192" height="232" rx="22" fill="#fff" stroke="#E5E7EB" stroke-width="3"/>
  <rect x="763" y="374" width="136" height="84" rx="16" fill="#FDE68A"/>
  <rect x="986" y="374" width="136" height="84" rx="16" fill="#BFDBFE"/>
  <rect x="763" y="486" width="96" height="16" rx="8" fill="#1F2937" opacity=".65"/>
  <rect x="986" y="486" width="96" height="16" rx="8" fill="#1F2937" opacity=".65"/>
  <rect x="763" y="522" width="128" height="22" rx="11" fill="#14B8A6" opacity=".9"/>
  <rect x="986" y="522" width="128" height="22" rx="11" fill="#14B8A6" opacity=".9"/>
</svg>
